<svg id="Слой_1" data-name="Слой 1" xmlns="http://www.w3.org/2000/svg" viewBox="0 0 1830.47 883.17"><defs><style>.cls-1{fill:#a52a30;}.cls-1,.cls-2,.cls-3,.cls-4,.cls-5,.cls-6,.cls-7,.cls-8{fill-rule:evenodd;}.cls-2,.cls-5{fill:#fff;}.cls-2,.cls-3{stroke:#231f20;}.cls-2,.cls-3,.cls-5,.cls-7,.cls-8{stroke-miterlimit:22.93;}.cls-2{stroke-width:6.1px;}.cls-3,.cls-7,.cls-8{fill:none;}.cls-3{stroke-width:8.65px;}.cls-4{fill:#231f20;}.cls-5,.cls-7,.cls-8{stroke:#932310;}.cls-5{stroke-width:8.54px;}.cls-6{fill:#932310;}.cls-7{stroke-width:13.42px;}.cls-8{stroke-width:13.42px;}</style></defs><title>Logo_nazv_fon</title><path class="cls-1" d="M945.65,641.64V629.79c10-.91,15.66-1.83,17.16-2.64a4.91,4.91,0,0,0,2-2.69c.88-2.26,1.5-9.84,1.81-22.8q.66-30.1.65-47.38,0-23.32-.52-59.32c-.31-17.91-1.14-28.9-2.42-32.93a4.72,4.72,0,0,0-2.07-2.79c-1.36-1-6.9-2-16.62-3.11V444.31q26.65,1.15,34.38,1.16l64.56-1.3q21,0,30.61,4.46a33.46,33.46,0,0,1,15.18,14.17c3.74,6.52,5.62,14.2,5.62,23,0,11.28-3,21.12-9,29.62s-16.32,16-31.1,22.55l27.44,45.17,21.38,34.56c4,5.67,7,9,9,10.23s5.19,1.77,9.68,1.87v10.85l-7.61.14c-21.82.19-35.84.48-42.14.86q-11.19-19.57-33.5-56.68l-26.52-44a35.47,35.47,0,0,0,1.93-5.09,61.46,61.46,0,0,0,7.62.72c8,0,15.83-3.5,23.57-10.56s11.56-17,11.56-30.09c0-11.33-3-20.16-9.15-26.4s-15.21-9.46-27.43-9.46q-5.81,0-15.71,1l-.92,41.47L1004,555.15q0,17.86,1.28,45.7c.7,14,1.41,21.78,2.06,23.46a6,6,0,0,0,2.86,3c1.81,1.11,7.65,2,17.5,2.5v11.85c-15.44-.67-29.16-1-41.08-1q-19.05,0-41,1Zm225.33-204A18.46,18.46,0,0,1,1185.1,444a22.14,22.14,0,0,1,5.85,15.55,21.84,21.84,0,0,1-5.85,15.36,18.86,18.86,0,0,1-28.37,0,21.89,21.89,0,0,1-5.85-15.36,22.18,22.18,0,0,1,5.85-15.55,18.59,18.59,0,0,1,14.25-6.39ZM1135.05,641.5V629.79c9.68-.34,15.31-1,16.81-2s2.46-3.55,2.89-7.87c.67-5.91,1-18.91,1-39.07q0-13.11-.4-24.19l-.35-16.47c0-5.42-.58-8.78-1.63-10s-4-2-8.71-2.21l-9.63-.39V516.75q31-2.52,51.15-11.95l3.21,2.83q-1.79,26.85-1.81,78.14,0,29.75.89,35.86c.43,2.93,1.23,4.8,2.41,5.66s6.78,1.68,16.94,2.5V641.5c-15.58-.57-27.58-.86-36.07-.86q-6.86,0-36.72.86Zm82.68-113,17.14-12.24c-.17-16.6-.56-31.1-1.14-43.58a213.7,213.7,0,0,0,33.12-14.35l3.82,3.21c-1.84,13.64-3.16,31.88-3.82,54.72a68.32,68.32,0,0,0,11.7,1,139.34,139.34,0,0,0,23.56-1.82l1.2.81-1.2,5.1c-1.27,5.23-2.2,10.07-2.81,14.44-10.07-.81-17.46-1.25-22.16-1.25a72.26,72.26,0,0,0-10.29.72q-.25,14.19-.27,25,0,47.24,2.54,53.71t12.29,6.48a29.19,29.19,0,0,0,6.1-.71,51,51,0,0,0,7-2l2.19,5.38c-5.13,6.29-10.15,12.77-15,19.54-3.21.57-6.1,1-8.79,1.25a70.12,70.12,0,0,1-7.34.43c-7.21,0-13.23-1.34-18.07-4.08a25.28,25.28,0,0,1-10.61-10.56c-2.15-4.27-3.24-10.71-3.24-19.25q0-6.76.61-35.43c.44-16.8.65-30,.65-39.79l-6.55-.28a90.43,90.43,0,0,0-10.59.81v-7.3Zm87.85,0,17.16-12.24c-.18-16.6-.58-31.1-1.14-43.58a213.17,213.17,0,0,0,33.11-14.35l3.83,3.21c-1.85,13.64-3.18,31.88-3.83,54.72a68.21,68.21,0,0,0,11.69,1A139.42,139.42,0,0,0,1390,515.5l1.18.81-1.18,5.1a145.94,145.94,0,0,0-2.81,14.44c-10.08-.81-17.46-1.25-22.17-1.25a72.26,72.26,0,0,0-10.29.72q-.27,14.19-.26,25,0,47.24,2.54,53.71t12.27,6.48a29.3,29.3,0,0,0,6.12-.71,52.12,52.12,0,0,0,7-2l2.2,5.38c-5.15,6.29-10.16,12.77-15,19.54-3.21.57-6.12,1-8.8,1.25a70.31,70.31,0,0,1-7.35.43c-7.2,0-13.23-1.34-18.07-4.08a25.29,25.29,0,0,1-10.59-10.56c-2.16-4.27-3.26-10.71-3.26-19.25q0-6.76.62-35.43c.44-16.8.66-30,.66-39.79l-6.55-.28a90.57,90.57,0,0,0-10.61.81v-7.3Zm200,85.64,3.74,4.08-5.8,13.49a70.77,70.77,0,0,1-19.88,9.5,78.93,78.93,0,0,1-22.6,3.17q-28.11,0-44.29-17.81t-16.14-50c0-13.58,1.59-24.86,4.75-33.74a40.19,40.19,0,0,1,12.67-18,144.87,144.87,0,0,1,20.35-13.63,50.89,50.89,0,0,1,25.34-6.48q21.1,0,34.91,12.86t13.77,41.42c0,2.36-.08,5.91-.35,10.66L1490.86,574c-6.52.49-16,.73-28.33.73h-28q1.9,24.19,13.28,36.43c7.56,8.16,17.14,12.24,28.85,12.24a46.06,46.06,0,0,0,14.55-2.36,60.39,60.39,0,0,0,14.29-6.81Zm-71.9-54.43q11.61,1.14,23.22,1.15a211.65,211.65,0,0,0,21.37-1.15l.13-6.58q0-17.35-5.8-25.25a18.49,18.49,0,0,0-15.7-8,19.56,19.56,0,0,0-12,3.75,22.27,22.27,0,0,0-7.48,10.46c-1.63,4.52-2.86,13.06-3.74,25.59Zm91.52,81.74V629.79c8.66-.43,13.62-1,14.9-1.68a5.66,5.66,0,0,0,2.46-2.64c1-2.26,1.5-7.25,1.68-14.93q.52-20.52.53-37.39,0-32.48-.8-38.55c-.26-2.35-1-4-2.29-5s-6.82-1.68-16.48-2V516.75q26-2.67,37.2-6.62l13.28-5.33c1.18,0,1.8.86,1.8,2.68l-.14,2c-.34,5.91-.52,14.35-.52,25.44a203.25,203.25,0,0,0,14.55-17.42c4-5.28,7.4-8.69,10.34-10.27s6.82-2.4,11.7-2.4a25.28,25.28,0,0,1,8.4,1.53q-1.18,14-1.54,38.26l-5.8,2.26c-2-3.65-4.14-6.2-6.52-7.68a17.47,17.47,0,0,0-9.23-2.17,20.67,20.67,0,0,0-13.24,4.37,19.48,19.48,0,0,0-7.12,10c-.65,2.79-1,12.34-1,28.66,0,23.71.32,37.59.93,41.52.3,2.6,1.15,4.37,2.43,5.33,2,1.39,8.48,2.4,19.47,2.93V641.5l-14.47-.43c-9.19-.29-17.1-.43-23.82-.43-6.34,0-13.73.14-22.13.43l-14.55.43Zm123.12-45.74c.45,12.09,1,18.86,1.68,20.25,1.89,3.84,5.45,7.25,10.64,10.13a36.28,36.28,0,0,0,18.12,4.37q12.6,0,18.87-5.62c4.17-3.74,6.24-8.73,6.24-14.93,0-5.32-1.5-9.55-4.49-12.62s-9.45-5.81-19.34-8.16q-22.44-5.32-29.21-9.36a28.2,28.2,0,0,1-10.72-11.9c-2.68-5.23-4-11.52-4-18.82a44.12,44.12,0,0,1,5.93-22.94,41.07,41.07,0,0,1,17.06-15.65c7.45-3.84,17.25-5.71,29.43-5.71a92.15,92.15,0,0,1,35.45,6.76q-1.8,11.38-2.47,35.43h-10.15c-.53-10.13-1.23-16.08-2.2-17.86-1.28-2.74-3.74-5-7.35-6.91a34.56,34.56,0,0,0-16-3.79c-7.21,0-12.85,1.77-16.8,5.28a16.9,16.9,0,0,0-6,13.29,14.39,14.39,0,0,0,5.4,11.81c3.61,3,12.23,5.86,25.77,8.59,9.37,1.88,15.88,3.6,19.48,5.19a30.56,30.56,0,0,1,13.72,12.29q4.7,8.13,4.71,20.49,0,23.76-16.88,36.39T1675,644.43a85.73,85.73,0,0,1-17.16-2,168.87,168.87,0,0,1-20.48-5.76l-1.93-2.4c1-8.16,1.66-21,1.93-38.54Z" transform="translate(-32.64 -99.43)"/><path class="cls-1" d="M1813.2,463.26a51,51,0,0,1,24.53,6.43,45.65,45.65,0,0,1,18.67,18.41,50,50,0,0,1,.12,49.82A46.82,46.82,0,0,1,1838,556.38a50.09,50.09,0,0,1-49.6,0A46.89,46.89,0,0,1,1770,537.92a49.92,49.92,0,0,1,.12-49.82,45.67,45.67,0,0,1,18.65-18.41,51,51,0,0,1,24.48-6.43Zm0,6.23a44.42,44.42,0,0,0-21.41,5.65,40.08,40.08,0,0,0-16.32,16.12,43.7,43.7,0,0,0-.1,43.51,40.73,40.73,0,0,0,16.19,16.16,43.62,43.62,0,0,0,43.33,0A40.59,40.59,0,0,0,1851,534.77a43.67,43.67,0,0,0-.07-43.51,39.84,39.84,0,0,0-16.27-16.12,44.53,44.53,0,0,0-21.48-5.65Zm-26.64,14.65v2.37q3.8.44,5,2t1.22,7.35v33.19c0,4-.57,6.72-1.74,8.09-.85,1-2.72,1.47-5.63,1.47V541h29.74v-2.39c-3.5-.15-5.81-.77-6.86-1.9s-1.59-3.68-1.59-7.66V515.14H1810L1824.38,541h17v-2.39a6.24,6.24,0,0,1-3-1.28,19.69,19.69,0,0,1-4.37-5.69l-9.62-17.56c4.23-1.18,7.37-3.08,9.46-5.67a13.81,13.81,0,0,0,3.12-8.9c0-5.26-2.36-9.34-7.11-12.29q-4.95-3.09-17.85-3.09Zm20.16,27.4a26.88,26.88,0,0,0,4,.36,10.42,10.42,0,0,0,7.84-3.45c2.19-2.28,3.27-5.35,3.27-9.19s-1-6.94-3-9-5.15-3-9.38-3h-2.69Z" transform="translate(-32.64 -99.43)"/><path class="cls-2" d="M630.08,172.4,818.53,303.65Q667.15,532,817.64,730.85,748.72,883.63,620,904.65q-28.74,44.61-146.8,35.74c-30.18,2.78-45.92,33.66-47.07,35.79-1.57-2.89-13.69-32.67-43.87-35.45Q264.15,949.6,235.4,905,106.64,884,37.72,731.2,188.2,532.32,36.83,304L225.28,172.74Q423.3,263.49,630.08,172.4Z" transform="translate(-32.64 -99.43)"/><path class="cls-3" d="M509.76,571.37c17,0,30.73-14.07,30.73-31.41s-13.76-31.41-30.73-31.41S479,522.62,479,540,492.8,571.37,509.76,571.37Z" transform="translate(-32.64 -99.43)"/><path class="cls-4" d="M514.92,570.93V547.06l14.87,16.72a29.73,29.73,0,0,1-14.87,7.15Zm-9.86-24c0,8,.12,16,0,24a30.14,30.14,0,0,1-16.91-8.71L505.06,547Zm15.16-2.77,14.31,14.37a31.18,31.18,0,0,0,5.68-14.36Zm-35.79,13.56c5.7-5.14,12.46-11.58,14.8-13.51l-19.91,0a31.65,31.65,0,0,0,5.11,13.48ZM517.7,535l15.92-14.83A31.87,31.87,0,0,1,540.1,535Zm-31.39-15.33L501.78,535c-7.74-.17-14.62-.06-22.35-.09a31.65,31.65,0,0,1,6.88-15.27ZM515,509l0,19.82,14.21-13.22A30.2,30.2,0,0,0,515,509Zm-9.87-.08a29.68,29.68,0,0,0-13.71,5.87l13.73,14.05,0-19.92Zm6.33-5.32c-49.88-.72-51.59,71.81-2.66,72.72C557.85,577.07,559.41,505.18,511.42,503.6Z" transform="translate(-32.64 -99.43)"/><path class="cls-5" d="M784.87,192.42c23.73,0,43-19.87,43-44.37s-19.26-44.35-43-44.35-43,19.86-43,44.35S761.12,192.42,784.87,192.42Z" transform="translate(-32.64 -99.43)"/><path class="cls-6" d="M762.76,175.78V120.33h23.58c5.93,0,10.23.51,12.91,1.5a12.7,12.7,0,0,1,6.45,5.31,16,16,0,0,1,2.42,8.74,14.84,14.84,0,0,1-3.67,10.31c-2.44,2.7-6.1,4.42-11,5.12a26,26,0,0,1,6,4.65,62.7,62.7,0,0,1,6.36,9l6.78,10.82H799.23l-8.09-12.07a77.2,77.2,0,0,0-5.9-8.14,8.68,8.68,0,0,0-3.37-2.32,18.72,18.72,0,0,0-5.64-.61H774v23.14Zm11.21-32h8.28c5.37,0,8.72-.22,10.07-.67a6.13,6.13,0,0,0,3.13-2.35,7.26,7.26,0,0,0,1.14-4.16,6.63,6.63,0,0,0-1.5-4.52,6.86,6.86,0,0,0-4.22-2.18q-1.36-.18-8.17-.18H774Z" transform="translate(-32.64 -99.43)"/><path class="cls-6" d="M219.27,466.53l22.39.41.61-36.48C239,414.2,231.51,389,258.42,370.35c-27.36,8.37-29.9,9.51-55.75.32,19.39,17.54,19.12,19.06,16.93,59.2Z" transform="translate(-32.64 -99.43)"/><polygon class="cls-6" points="134.86 646.36 134.21 707.92 162.29 708.22 162.97 652.26 170.43 652.34 169.81 708.31 181.01 708.42 182.8 546.03 171.6 545.94 171.12 598.26 163.75 598.17 164.07 545.78 136 545.52 135.51 605.32 146.7 605.45 147.26 555.08 152.85 555.15 151.29 696.9 145.69 696.85 146.25 646.48 134.86 646.36"/><polygon class="cls-6" points="207.56 499.78 187.12 492.1 184.51 728.99 203.14 729.19 207.56 499.78"/><path class="cls-7" d="M173.84,448c24.22,0,43.85-20.16,43.85-45s-19.63-45-43.85-45S130,378.07,130,402.93,149.63,448,173.84,448Z" transform="translate(-32.64 -99.43)"/><path class="cls-7" d="M284.65,447.78c24.19,0,43.81-20.15,43.81-45s-19.62-45-43.81-45-43.79,20.15-43.79,45S260.47,447.78,284.65,447.78Z" transform="translate(-32.64 -99.43)"/><path class="cls-8" d="M229.36,371.3c23.6,0,42.72-19.64,42.72-43.87S253,283.55,229.36,283.55s-42.72,19.65-42.72,43.88S205.77,371.3,229.36,371.3Z" transform="translate(-32.64 -99.43)"/><path class="cls-4" d="M397.29,728.05c-.08,8.5,5.93,18.74,12.84,20.66-.71,7.48-6.24,26.62-11.35,34.63-.81,1.27-4.12-.31-4.93-1.56l10.64-29.4c-3.37-5.15-12.89-14.68-12.81-22.52.12-11.09,41.84-96.17,48.71-97.92-1.49,15.75-43,83.49-43.1,96.11Zm49.56-93.45,5.1-1.32c6.28,28.36,13.1,56.52,19.66,84.81,8.69,37.47,9.83,74.18,14.18,112.06-2.35,4.09-7.09,4.44-12.17,1,5.35-42.26-3.68-102.35-14.65-145-2.85-11.07-11.91-39.3-12.12-51.57Zm70.91,102.73,26.11,37.59c1.29.73,3.61-1.33,3-3.56-6.12-9.58-16.74-24.86-22.87-34.45,6.53-26.67-12-45.79-27.77-65.09-7.69-9.42-29.67-40.72-36.3-45.68-5.55,11.67,60.76,73,60.55,92.07-.08,7-.31,12.36-2.76,19.12ZM330.1,624.46c-.09,7.94-13.5,9.14-13.74.1-.39-10.27,13.84-9.95,13.74-.1Zm104-16.64c-46.62,16.26-89.57,29.55-136.2,45.81-2.14,1.44-.05,7.5,2,7,41.36-10.82,96.41-32,137.12-44.89,3.44-3.3,1.77-7.63-3-7.87ZM350.1,610c.79-10,13.89-8.84,14.32.5-.07,9.12-14.55,9.74-14.32-.5Zm59.84-15.27c-.25,8.07-13.47,7.66-13-1,.44-8.93,13.87-8.1,13,1Zm213.35,54.86c-3.58-8.2-100.2-53.9-108.11-60.37-.75-.61,3.83-1.12,4.72-1,23,4,99.81,47.07,112.3,62.22,1.07,2.34-.14,4.33-8.91-.88ZM549.09,569c14.53,3.55,106.58,33.14,109,34.26,3.38,1.63,5.81-.67,4-2.55-10.05-8-88.41-33.06-109.72-36.3-.5,1.87-2.36,2.89-3.29,4.59Zm102.58-6.39c.09,9.56-13.67,9.31-13.79.19.09-8.65,13.59-9.22,13.79-.19Zm-73.08-13.26c-.27,8.48-13.4,7.68-13.3-.41.1-9.78,13.4-9.29,13.3.41Zm-65-51.35c51.07,1.87,55.7,83-4.65,83.9-55.9-1.27-59-83.7,4.65-83.9Zm42.61,26.59c17.42.19,119.53,6.06,135.69,9.88,1.16.27,4.33-5.45.6-8.29-46-7-100-10.11-138.26-6.51a8,8,0,0,1,2,4.92Zm-327,67.59c4.16-14.92,84.9-33,108.37-32.69.28-26.23-17.48-40.31-18.5-54.5,7.81,2.18,24.26,38.73,24.15,49,0,4.14-1,7.21-2,11.17-43.55-.48-71.78,18.14-112,27.05ZM577,498.71a7.46,7.46,0,1,0-7.54,7.38,7.16,7.16,0,0,0,7.54-7.38ZM648,495.76c.1-9.5,13.16-9.56,13,.14.25,7.81-13,8.34-13-.14ZM287.51,534.7c0,1.53-39,20.39-43.8,23.13-7.75,4.44-37.91,20.4-38.85,28.2,8.51-.62,34.52-19,43.07-23.88,10.4-5.89,35.85-17,48.82-19.89-2.52-11.38-30.62-67.82-40.72-68.78,2.61,10.22,31.53,55.71,31.48,61.22ZM456,476.86c-.1,8.83-14.1,10.44-14.73.49.12-11.19,14.84-9.88,14.73-.49ZM419.37,512c103.18-44.72,236.47-51.2,271-45,1.24-7.05-5.84-14.16-10.59-16.3-51.66,2.61-225.7,18.13-260.45,61.26Zm128.35-62.12c1,8.93-13.41,10.74-14.43,1.19-.43-10.58,14.14-11.89,14.43-1.19Zm95.27-12a7.47,7.47,0,1,1-7.38-7.55,7.18,7.18,0,0,1,7.38,7.55Zm-152.37,3.7c17.48-8.21,166.84-27.07,166.91-29.19-1.16-2.61-6-6.12-10.95-6.57-40.46,6.94-131.24,9.45-156,35.76Zm-29.17-26c43.12-38.76,115.15-48.05,171.43-57.21,14.6.45,34,14.3,25.84,20.46-80.55,1.86-123.78,15.77-197.27,36.75ZM241.62,467.19l-22.39-.4c-15.66,7.3-23.24,6.31-23.52,28.09-6.29,3.24-10.33,5.2-10.43,14.94-.07,6.29,1.67,8.47,1.61,14.44-.07,6.59-6.07,5.75-7.18,18.34-.07,9,3.72,11.44,4.95,13.39,2,3.14-3.82,9-3.86,13l0,3.73c-.19,16.84,21.36,18.89,39,19.08l20.44,7.69,54.93,47.73c-7.33,13.72,3.91,20.2,15.23,18.33,12,20.93,21.13,34.79,35.95,55.24,5.65,7.8,36.3,46.7,41.23,50.08-.21,19.17,9.91,17.8,16.75,16.68,10.39,5.35,16.33,15.3,25.36,21.46,7.11,4.85,19.28,13.85,31.46,20,5.15,12.9,37.24,11.79,35.81-5,5.21-8.16,21.65-23.4,25.13-26.84,7.24-7.15,9.84-10.66,17-17.71,11.1,1.22,11.94-7.49,10-13,1.5-5.53,3.91-8.32,7.91-12.82,11.68-13.13,22.45-30.09,33.78-44.68,16.28-21,20.08-29.39,32.39-52,9.2,2.17,16.94-2.19,11.08-12.44,5.22-6.85,17.92-28.67,23.55-37.89,6.78-.19,7.93-4,5.85-8.21,10.1-20.58,20.09-35.85,27-57.4,6.61-4.29,9.19-13.89,3-19.36,4.45-25.4-7.43-41.15.57-54.15-2.77-11.94-7.68-18.43-18.9-22.29-7-7-10.37-16.5-16.27-29.61-.27-.6,1.88-.53,1.06-3.58-2.42-4.41-10.49-6.48-13.79-8.69-4.72-3.17-4.25-8.23-1.37-11.13,11.37-5.09,24.8-4.95,24.81-9.91.15-13.69-20.23-33.69-38.77-35.88C572.85,357,504.6,374.54,460.93,397c-26.25,19.4-40,34.73-30.88,66.51-29.83,51.76-22,80,32.39,108.56-.14,12-2,42.21-7.77,51.81-1.42,2.39-8.19.92-11.46.21-2.49-5.26,5.39-8,.18-16.79-4.32-5-41.43-33.92-47.7-38.21-13-8.84-40.48-24.57-46.63-37.41C336.9,506.28,276.87,467.58,241.62,467.19Z" transform="translate(-32.64 -99.43)"/></svg>